<mxfile host="app.diagrams.net" modified="2022-12-11T10:13:42.639Z" agent="5.0 (X11)" version="20.6.0" etag="HKegws6XrwAK4Y2vQY-c" type="github">
  <diagram id="OrLiBa6Xm-FtO8-09U35" name="Page-1">
    <mxGraphModel dx="1102" dy="617" grid="1" gridSize="10" guides="1" tooltips="1" connect="1" arrows="1" fold="1" page="1" pageScale="1" pageWidth="850" pageHeight="1100" math="0" shadow="0">
      <root>
        <mxCell id="0" />
        <mxCell id="1" parent="0" />
        <mxCell id="Fd19I9jhK9GMk-E8c38c-4" value="" style="rounded=0;whiteSpace=wrap;html=1;" vertex="1" parent="1">
          <mxGeometry x="20" y="10" width="600" height="620" as="geometry" />
        </mxCell>
        <mxCell id="Fd19I9jhK9GMk-E8c38c-6" style="edgeStyle=orthogonalEdgeStyle;rounded=0;orthogonalLoop=1;jettySize=auto;html=1;exitX=0.5;exitY=1;exitDx=0;exitDy=0;entryX=1;entryY=0.5;entryDx=0;entryDy=0;" edge="1" parent="1" source="Fd19I9jhK9GMk-E8c38c-1" target="Fd19I9jhK9GMk-E8c38c-5">
          <mxGeometry relative="1" as="geometry" />
        </mxCell>
        <mxCell id="Fd19I9jhK9GMk-E8c38c-1" value="&lt;div&gt;Client&lt;/div&gt;&lt;div&gt;sendSearchRequest&lt;br&gt;&lt;/div&gt;" style="text;html=1;strokeColor=none;fillColor=none;align=center;verticalAlign=middle;whiteSpace=wrap;rounded=0;" vertex="1" parent="1">
          <mxGeometry x="710" y="50" width="60" height="30" as="geometry" />
        </mxCell>
        <mxCell id="Fd19I9jhK9GMk-E8c38c-8" style="edgeStyle=orthogonalEdgeStyle;rounded=0;orthogonalLoop=1;jettySize=auto;html=1;exitX=0;exitY=0.5;exitDx=0;exitDy=0;entryX=1;entryY=0.5;entryDx=0;entryDy=0;" edge="1" parent="1" source="Fd19I9jhK9GMk-E8c38c-5" target="Fd19I9jhK9GMk-E8c38c-7">
          <mxGeometry relative="1" as="geometry" />
        </mxCell>
        <mxCell id="Fd19I9jhK9GMk-E8c38c-5" value="treatSearchRequest" style="text;html=1;strokeColor=none;fillColor=none;align=center;verticalAlign=middle;whiteSpace=wrap;rounded=0;" vertex="1" parent="1">
          <mxGeometry x="440" y="90" width="140" height="30" as="geometry" />
        </mxCell>
        <mxCell id="Fd19I9jhK9GMk-E8c38c-7" value="searchRequests_queue" style="text;html=1;strokeColor=none;fillColor=none;align=center;verticalAlign=middle;whiteSpace=wrap;rounded=0;" vertex="1" parent="1">
          <mxGeometry x="230" y="40" width="140" height="30" as="geometry" />
        </mxCell>
        <mxCell id="Fd19I9jhK9GMk-E8c38c-9" value="requests resolver thread" style="text;html=1;strokeColor=#b85450;fillColor=#f8cecc;align=center;verticalAlign=middle;whiteSpace=wrap;rounded=0;" vertex="1" parent="1">
          <mxGeometry x="260" y="250" width="80" height="80" as="geometry" />
        </mxCell>
        <mxCell id="Fd19I9jhK9GMk-E8c38c-10" value="" style="endArrow=classic;startArrow=classic;html=1;rounded=0;entryX=0.5;entryY=1;entryDx=0;entryDy=0;exitX=0.5;exitY=0;exitDx=0;exitDy=0;" edge="1" parent="1" source="Fd19I9jhK9GMk-E8c38c-9" target="Fd19I9jhK9GMk-E8c38c-7">
          <mxGeometry width="50" height="50" relative="1" as="geometry">
            <mxPoint x="400" y="350" as="sourcePoint" />
            <mxPoint x="450" y="300" as="targetPoint" />
          </mxGeometry>
        </mxCell>
        <mxCell id="Fd19I9jhK9GMk-E8c38c-13" style="edgeStyle=orthogonalEdgeStyle;rounded=0;orthogonalLoop=1;jettySize=auto;html=1;exitX=1;exitY=0.25;exitDx=0;exitDy=0;" edge="1" parent="1" source="Fd19I9jhK9GMk-E8c38c-11" target="Fd19I9jhK9GMk-E8c38c-12">
          <mxGeometry relative="1" as="geometry">
            <Array as="points">
              <mxPoint x="430" y="280" />
              <mxPoint x="600" y="280" />
              <mxPoint x="600" y="210" />
              <mxPoint x="690" y="210" />
            </Array>
          </mxGeometry>
        </mxCell>
        <mxCell id="Fd19I9jhK9GMk-E8c38c-25" style="edgeStyle=orthogonalEdgeStyle;rounded=0;orthogonalLoop=1;jettySize=auto;html=1;exitX=1;exitY=0.5;exitDx=0;exitDy=0;entryX=0.5;entryY=1;entryDx=0;entryDy=0;" edge="1" parent="1" source="Fd19I9jhK9GMk-E8c38c-11" target="Fd19I9jhK9GMk-E8c38c-15">
          <mxGeometry relative="1" as="geometry">
            <Array as="points">
              <mxPoint x="640" y="290" />
              <mxPoint x="640" y="230" />
              <mxPoint x="770" y="230" />
            </Array>
          </mxGeometry>
        </mxCell>
        <mxCell id="Fd19I9jhK9GMk-E8c38c-26" style="edgeStyle=orthogonalEdgeStyle;rounded=0;orthogonalLoop=1;jettySize=auto;html=1;entryX=0;entryY=0.5;entryDx=0;entryDy=0;" edge="1" parent="1" target="Fd19I9jhK9GMk-E8c38c-19">
          <mxGeometry relative="1" as="geometry">
            <mxPoint x="430" y="310" as="sourcePoint" />
            <Array as="points">
              <mxPoint x="720" y="310" />
              <mxPoint x="720" y="290" />
            </Array>
          </mxGeometry>
        </mxCell>
        <mxCell id="Fd19I9jhK9GMk-E8c38c-11" value="for all peers connected cascade the request" style="text;html=1;strokeColor=#b85450;fillColor=#f8cecc;align=center;verticalAlign=middle;whiteSpace=wrap;rounded=0;" vertex="1" parent="1">
          <mxGeometry x="340" y="250" width="90" height="80" as="geometry" />
        </mxCell>
        <mxCell id="Fd19I9jhK9GMk-E8c38c-12" value="Peer" style="text;html=1;strokeColor=#666666;fillColor=#f5f5f5;align=center;verticalAlign=middle;whiteSpace=wrap;rounded=0;fontColor=#333333;" vertex="1" parent="1">
          <mxGeometry x="660" y="160" width="60" height="30" as="geometry" />
        </mxCell>
        <mxCell id="Fd19I9jhK9GMk-E8c38c-15" value="Peer" style="text;html=1;strokeColor=#666666;fillColor=#f5f5f5;align=center;verticalAlign=middle;whiteSpace=wrap;rounded=0;fontColor=#333333;" vertex="1" parent="1">
          <mxGeometry x="740" y="180" width="60" height="30" as="geometry" />
        </mxCell>
        <mxCell id="Fd19I9jhK9GMk-E8c38c-16" style="edgeStyle=orthogonalEdgeStyle;rounded=0;orthogonalLoop=1;jettySize=auto;html=1;entryX=0;entryY=0.5;entryDx=0;entryDy=0;" edge="1" parent="1" target="Fd19I9jhK9GMk-E8c38c-17" source="Fd19I9jhK9GMk-E8c38c-11">
          <mxGeometry relative="1" as="geometry">
            <mxPoint x="425" y="350" as="sourcePoint" />
            <Array as="points">
              <mxPoint x="700" y="300" />
              <mxPoint x="700" y="245" />
            </Array>
          </mxGeometry>
        </mxCell>
        <mxCell id="Fd19I9jhK9GMk-E8c38c-17" value="Peer" style="text;html=1;strokeColor=#666666;fillColor=#f5f5f5;align=center;verticalAlign=middle;whiteSpace=wrap;rounded=0;fontColor=#333333;" vertex="1" parent="1">
          <mxGeometry x="780" y="230" width="60" height="30" as="geometry" />
        </mxCell>
        <mxCell id="Fd19I9jhK9GMk-E8c38c-19" value="Peer" style="text;html=1;strokeColor=#666666;fillColor=#f5f5f5;align=center;verticalAlign=middle;whiteSpace=wrap;rounded=0;fontColor=#333333;" vertex="1" parent="1">
          <mxGeometry x="750" y="275" width="60" height="30" as="geometry" />
        </mxCell>
      </root>
    </mxGraphModel>
  </diagram>
</mxfile>
